<?xml version="1.0" encoding="UTF-8"?>
<svg width="203px" height="131px" viewBox="0 0 203 131" version="1.1" xmlns="http://www.w3.org/2000/svg" xmlns:xlink="http://www.w3.org/1999/xlink">
    <title>fint-by-vigo-white</title>
    <defs>
        <path d="M86.801,123.24 C87.825,123.24 88.725,122.992 89.501,122.496 C90.277,122 90.881,121.292 91.313,120.372 C91.745,119.452 91.961,118.368 91.961,117.12 C91.961,115.856 91.745,114.772 91.313,113.868 C90.881,112.964 90.281,112.264 89.513,111.768 C88.745,111.272 87.841,111.024 86.801,111.024 C85.969,111.024 85.221,111.204 84.557,111.564 C83.893,111.924 83.385,112.4 83.033,112.992 L83.033,112.992 L83.033,107.4 C83.033,106.392 82.529,105.888 81.521,105.888 C80.529,105.888 80.033,106.392 80.033,107.4 L80.033,107.4 L80.033,121.656 C80.033,122.68 80.529,123.192 81.521,123.192 C82.497,123.192 82.985,122.68 82.985,121.656 L82.985,121.656 L82.985,121.152 C83.321,121.792 83.825,122.3 84.497,122.676 C85.169,123.052 85.937,123.24 86.801,123.24 Z M85.961,120.96 C85.065,120.96 84.345,120.636 83.801,119.988 C83.257,119.34 82.985,118.384 82.985,117.12 C82.985,115.84 83.257,114.884 83.801,114.252 C84.345,113.62 85.065,113.304 85.961,113.304 C86.857,113.304 87.577,113.62 88.121,114.252 C88.665,114.884 88.937,115.84 88.937,117.12 C88.937,118.384 88.665,119.34 88.121,119.988 C87.577,120.636 86.857,120.96 85.961,120.96 Z M97.304,127.512 C97.688,127.512 98,127.432 98.24,127.272 C98.48,127.112 98.704,126.808 98.912,126.36 L98.912,126.36 L104.744,113.04 C104.968,112.528 104.976,112.072 104.768,111.672 C104.56,111.272 104.2,111.072 103.688,111.072 C103.288,111.072 102.968,111.156 102.728,111.324 C102.488,111.492 102.28,111.8 102.104,112.248 L102.104,112.248 L99.152,119.472 L96.272,112.272 C96.096,111.808 95.896,111.492 95.672,111.324 C95.448,111.156 95.152,111.072 94.784,111.072 C94.128,111.072 93.688,111.272 93.464,111.672 C93.24,112.072 93.24,112.536 93.464,113.064 L93.464,113.064 L97.568,122.52 L96.2,125.544 C95.976,126.056 95.968,126.512 96.176,126.912 C96.384,127.312 96.76,127.512 97.304,127.512 Z" id="path-1"></path>
        <path d="M17.437,85.756 C22.533,85.756 25.081,83.096 25.081,77.776 L25.081,77.776 L25.081,61.48 L43.813,61.48 C47.845,61.48 49.861,59.492 49.861,55.516 C49.861,51.596 47.845,49.636 43.813,49.636 L43.813,49.636 L25.081,49.636 L25.081,37.708 L45.661,37.708 C49.693,37.708 51.709,35.692 51.709,31.66 C51.709,27.74 49.693,25.78 45.661,25.78 L45.661,25.78 L17.689,25.78 C12.313,25.78 9.625,28.44 9.625,33.76 L9.625,33.76 L9.625,77.776 C9.625,80.352 10.311,82.326 11.683,83.698 C13.055,85.07 14.973,85.756 17.437,85.756 Z M66.4615,85.756 C68.9815,85.756 70.8995,85.084 72.2155,83.74 C73.5315,82.396 74.1895,80.436 74.1895,77.86 L74.1895,77.86 L74.1895,32.92 C74.1895,30.344 73.5175,28.384 72.1735,27.04 C70.8295,25.696 68.9255,25.024 66.4615,25.024 C63.9975,25.024 62.0935,25.696 60.7495,27.04 C59.4055,28.384 58.7335,30.344 58.7335,32.92 L58.7335,32.92 L58.7335,77.86 C58.7335,80.436 59.4055,82.396 60.7495,83.74 C62.0935,85.084 63.9975,85.756 66.4615,85.756 Z M132.034,85.756 C133.938,85.756 135.45,85.126 136.57,83.866 C137.69,82.606 138.25,80.912 138.25,78.784 L138.25,78.784 L138.25,32.248 C138.25,29.952 137.648,28.174 136.444,26.914 C135.24,25.654 133.462,25.024 131.11,25.024 C126.35,25.024 123.97,27.432 123.97,32.248 L123.97,32.248 L123.97,59.716 L99.694,29.392 C98.406,27.824 97.272,26.704 96.292,26.032 C95.312,25.36 93.926,25.024 92.134,25.024 C90.118,25.024 88.494,25.682 87.262,26.998 C86.03,28.314 85.414,30.204 85.414,32.668 L85.414,32.668 L85.414,78.448 C85.414,83.32 87.822,85.756 92.638,85.756 C97.398,85.756 99.778,83.32 99.778,78.448 L99.778,78.448 L99.778,51.064 L124.054,81.388 C125.286,82.956 126.448,84.076 127.54,84.748 C128.632,85.42 130.13,85.756 132.034,85.756 Z M171.2305,85.756 C173.7505,85.756 175.6685,85.084 176.9845,83.74 C178.3005,82.396 178.9585,80.464 178.9585,77.944 L178.9585,77.944 L178.9585,38.38 L192.1465,38.38 C196.4025,38.38 198.5305,36.28 198.5305,32.08 C198.5305,27.88 196.4025,25.78 192.1465,25.78 L192.1465,25.78 L150.3145,25.78 C146.0585,25.78 143.9305,27.88 143.9305,32.08 C143.9305,36.28 146.0585,38.38 150.3145,38.38 L150.3145,38.38 L163.5025,38.38 L163.5025,77.944 C163.5025,80.464 164.1745,82.396 165.5185,83.74 C166.8625,85.084 168.7665,85.756 171.2305,85.756 Z" id="path-2"></path>
    </defs>
    <g id="FINT" stroke="none" stroke-width="1" fill="none" fill-rule="evenodd">
        <g id="fint-by-vigo-white" fill-rule="nonzero">
            <g id="vigo-copy-6" transform="translate(115.000000, 96.000000)">
                <polygon id="Path" fill="#FFFFFF" points="10.6297606 27 6.37061278 27 0 8 5.69218098 8 9.27327037 20.0234464 12.9294092 8 17 8"></polygon>
                <path d="M25,5.75703194 L20,5.75703194 L20,0 L25,0 L25,5.75703194 Z M25,27 L20,27 L20,7.42459687 L25,7.42459687 L25,27 Z" id="Shape" fill="#FFFFFF"></path>
                <path d="M48,7.70154247 C47.3006075,7.58579765 47.0054543,7.54721604 46.5636367,7.54721604 C45.3852132,7.54721604 44.7219395,8.08735856 44.5008482,9.16726161 C45.6059395,10.5172359 45.9375764,11.3652673 45.9375764,12.7924049 C45.9375764,16.4943293 42.8806071,18.6923351 37.7612142,18.6923351 C36.6192743,18.6923351 35.8458199,18.6155538 34.8144257,18.4230278 C34.1146683,18.8466615 33.8567285,19.2324776 33.8567285,19.8494013 C33.8567285,21.160412 34.5564859,21.4304833 38.3504259,21.6237733 C42.8806071,21.854881 43.2487276,21.8938446 44.6850909,22.3174783 C46.6376986,22.934402 47.8898192,24.6319928 47.8898192,26.7520713 C47.8898192,28.6039886 46.8949087,30.339397 45.3115161,31.3413728 C43.4698189,32.5366387 41.2231526,33 37.466061,33 C34.151152,33 32.0887284,32.7299287 30.4677575,31.9972602 C28.9576971,31.3803364 28,30.0307441 28,28.565407 C28,26.8299986 28.9945457,25.7504775 31.1306664,25.1327898 C29.4732118,24.2075951 28.8106678,23.2438189 28.8106678,21.7395182 C28.8106678,20.5056707 29.3998796,19.3482224 30.3572119,18.6545174 C30.9464237,18.2301197 31.3521224,17.9986301 32.4568489,17.4974512 C30.2470311,16.4557477 29.2524855,15.0293742 29.2524855,12.8699501 C29.2524855,9.20622522 32.4940623,6.89209268 37.6134552,6.89209268 C39.417939,6.89209268 40.4124847,7.04641912 42.4015761,7.70230647 C42.8065452,4.8484134 43.7277586,4 46.5267882,4 C47.0795162,4 47.3743045,4.03858161 48,4.15432644 L48,7.70154247 L48,7.70154247 Z M34.5933344,26.2505104 C34.2985461,26.1737292 34.0778197,26.1737292 34.0041227,26.1737292 C33.3040004,26.2505104 32.6779401,26.983943 32.6779401,27.7548112 C32.6779401,29.1051675 34.1146683,29.6067284 37.9082435,29.6067284 C41.4442438,29.6067284 42.8806071,29.1055495 42.8806071,27.7937748 C42.8806071,26.5599273 41.4810923,26.290238 35.8458199,26.290238 L34.5933344,26.2505104 Z M34.630183,12.7534413 C34.630183,14.5660129 35.7349094,15.6455339 37.540123,15.6455339 C39.4183039,15.6455339 40.6707893,14.4888497 40.6707893,12.7534413 C40.6707893,11.0566145 39.4555172,9.9385118 37.5769715,9.9385118 C35.7349094,9.9385118 34.630183,11.0180329 34.630183,12.7534413 Z" id="Shape" fill="#8CC640"></path>
                <path d="M66,17.0583124 C66,22.9451632 62.4697056,27 57.3913618,27 C54.7262482,27 52.7811077,26.0646843 51.1966673,24.0758834 C49.6839388,22.1268585 49,19.9048079 49,16.8636802 C49,10.9764433 52.3858003,7 57.3917186,7 C62.5785221,6.99961383 66,10.9764433 66,17.0583124 Z M54.5111125,16.5126472 C54.5111125,21.3081676 55.3748662,23.2954238 57.4998216,23.2954238 C59.5527083,23.2954238 60.4903146,21.4240201 60.4903146,17.1745511 C60.4903146,12.4964279 59.6611681,10.7030315 57.5358559,10.7030315 C55.4105438,10.7030315 54.5111125,12.4191929 54.5111125,16.5126472 Z" id="Shape" fill="#FFFFFF"></path>
            </g>
            <g id="by" fill="#FFFFFF">
                <use fill-opacity="0.9" xlink:href="#path-1"></use>
                <use xlink:href="#path-1"></use>
            </g>
            <g id="FINT">
                <use fill-opacity="0.9" fill="#FFFFFF" xlink:href="#path-2"></use>
                <use fill="#8CC640" xlink:href="#path-2"></use>
            </g>
        </g>
    </g>
</svg>