<svg width="137" height="84" viewBox="0 0 137 84" fill="none" xmlns="http://www.w3.org/2000/svg">
<g clip-path="url(#clip0_1471_156)">
<path d="M68.4 42.3H83.4C83.4 18.4 63.2 -0.900021 39 0.699979C16.9 2.09998 0 21 0 43.1V83.8H15V42.9C15 28.9 25.6 16.8 39.6 15.7C55.2 14.5 68.3 26.9 68.3 42.3H68.4Z" fill="#F76650"/>
<path d="M94.8999 0.599976V15.6C110.6 15.6 123.2 29.3 121.4 45.3C120 57.5 110.2 67.4 97.8999 68.8C81.7999 70.6 68.2 58 68.2 42.3H53.2C53.2 65.3 71.8999 84 94.8999 84C117.9 84 136.6 65.3 136.6 42.3C136.6 19.3 117.9 0.599976 94.8999 0.599976Z" fill="#F76650"/>
</g>
<defs>
<clipPath id="clip0_1471_156">
<rect width="137" height="83.7" fill="white" transform="translate(0 0.299988)"/>
</clipPath>
</defs>
</svg>
